<?xml version="1.0" encoding="UTF-8"?> <svg xmlns="http://www.w3.org/2000/svg" xmlns:xlink="http://www.w3.org/1999/xlink" width="348" height="86" viewBox="0 0 348 86"><defs><style> .cls-1, .cls-2 { fill-rule: evenodd; } .cls-1 { fill: url(#linear-gradient); } .cls-2 { fill: #fff; } </style><linearGradient id="linear-gradient" x1="140.312" y1="88.688" x2="140.312" y2="2.75" gradientUnits="userSpaceOnUse"><stop offset="0" stop-color="#38d870"></stop><stop offset="1" stop-color="#05c8f9"></stop></linearGradient></defs><path id="i" class="cls-1" d="M36.333,2.742a35.03,35.03,0,0,1,35.03,35.03,36.051,36.051,0,0,1-2.893,13.86,36.965,36.965,0,0,1-7.007,10.816l-25.6,26.24v-16c-0.429.009-.849,0.009-1.28,0a34.506,34.506,0,0,1-24.026-11.2A34.263,34.263,0,0,1,1.3,37.772C1.7,21.147,15.592,2.742,36.333,2.742Zm0.01,11.446A23.563,23.563,0,1,1,12.75,37.75,23.578,23.578,0,0,1,36.344,14.188ZM36.67,26.32A11.789,11.789,0,1,1,24.881,38.109,11.789,11.789,0,0,1,36.67,26.32Zm230.5-14.579a3.857,3.857,0,0,0,1.174,3.279,5.409,5.409,0,0,0,3.8,1.208,7.518,7.518,0,0,0,5.108-1.8,5.764,5.764,0,0,0,2.072-4.556,3.892,3.892,0,0,0-1.347-3.141A5.651,5.651,0,0,0,274.21,5.6a7.538,7.538,0,0,0-4.971,1.657,5.711,5.711,0,0,0-2.071,4.488h0Zm-2.623,17.4-6.766,19.813a16.222,16.222,0,0,0-1.035,5.247q0,5.731,6.282,5.73,6.9,0,9.32-7.111l1.8-5.04h-1.312l-1.242,3.314a14.167,14.167,0,0,1-2.244,4.28,2.968,2.968,0,0,1-2.106,1.174,1.252,1.252,0,0,1-1.381-1.45,6.714,6.714,0,0,1,.415-2l7.248-21.126a11.757,11.757,0,0,0,.76-4.073,5.68,5.68,0,0,0-1.45-4.039Q271.38,22.3,268.2,22.3q-7.042,0-9.6,7.111l-1.934,5.247h1.312l1.381-3.521a15.933,15.933,0,0,1,2.14-4.177,2.943,2.943,0,0,1,2.278-1.277,1.164,1.164,0,0,1,1.243,1.381,9.6,9.6,0,0,1-.483,2.071h0Z" transform="translate(-1.313 -2.75)"></path><path id="anomica" class="cls-2" d="M110.918,59.183h8.318L104.777,20.112H95.789L81.275,59.183h8.318l2.791-7.948h15.8ZM94.449,45.245l5.806-16.681,5.806,16.681H94.449Zm47.4-17.521a12.01,12.01,0,0,0-6.5,1.763,9.867,9.867,0,0,0-4.047,4.9V28.172h-7.871V59.183h7.871V42.726a8.932,8.932,0,0,1,2.01-6.27,6.931,6.931,0,0,1,5.359-2.183,6.739,6.739,0,0,1,5.191,2.043,8.115,8.115,0,0,1,1.9,5.737V59.183h7.815V41.158q0-6.381-3.182-9.907a10.934,10.934,0,0,0-8.541-3.527h0Zm32.881,0.055a17.126,17.126,0,0,0-8.123,1.9,13.911,13.911,0,0,0-5.666,5.513,16.789,16.789,0,0,0-2.066,8.481,16.631,16.631,0,0,0,2.066,8.452,14.138,14.138,0,0,0,5.666,5.514,18.045,18.045,0,0,0,16.245,0,14.146,14.146,0,0,0,5.667-5.514,16.64,16.64,0,0,0,2.065-8.452,16.8,16.8,0,0,0-2.065-8.48,13.919,13.919,0,0,0-5.667-5.513,17.122,17.122,0,0,0-8.122-1.9h0Zm0,6.829a7.543,7.543,0,0,1,5.582,2.323q2.289,2.323,2.289,6.745t-2.289,6.745a7.869,7.869,0,0,1-11.165,0q-2.289-2.322-2.289-6.745t2.289-6.745a7.542,7.542,0,0,1,5.583-2.323h0Zm60.737-6.884a11.545,11.545,0,0,0-6.448,1.875,11.692,11.692,0,0,0-4.326,5.066,10.952,10.952,0,0,0-4.159-5.15,11.691,11.691,0,0,0-6.5-1.791,11.423,11.423,0,0,0-6.168,1.651,9.6,9.6,0,0,0-3.88,4.674V28.172h-7.871V59.183h7.871V42.726a8.491,8.491,0,0,1,1.954-6.046,6.871,6.871,0,0,1,5.247-2.071,6.523,6.523,0,0,1,5,1.931,7.753,7.753,0,0,1,1.814,5.513V59.183h7.816V42.726q0-3.975,1.954-6.046a6.871,6.871,0,0,1,5.247-2.071,6.521,6.521,0,0,1,5,1.931,7.754,7.754,0,0,1,1.815,5.513V59.183h7.815V41.158q0-6.435-3.266-9.935a11.588,11.588,0,0,0-8.9-3.5h0Zm62.2,1.7a16.711,16.711,0,0,0-8.06,1.9,13.358,13.358,0,0,0-5.486,5.513,17.51,17.51,0,0,0-1.959,8.481,17.343,17.343,0,0,0,1.959,8.452,13.57,13.57,0,0,0,5.486,5.513,16.5,16.5,0,0,0,8.06,1.931,15.345,15.345,0,0,0,9.992-3.246,14.189,14.189,0,0,0,5.01-8.844h-8.341a6.436,6.436,0,0,1-2.3,3.89,7.05,7.05,0,0,1-4.534,1.427,6.765,6.765,0,0,1-5.234-2.323q-2.1-2.322-2.1-6.8t2.1-6.8A6.767,6.767,0,0,1,297.49,36.2a7.051,7.051,0,0,1,4.534,1.427,6.439,6.439,0,0,1,2.3,3.891h8.341a14.191,14.191,0,0,0-5.01-8.844,15.346,15.346,0,0,0-9.992-3.247h0Zm32.69,0a13.331,13.331,0,0,0-7.053,1.9,12.865,12.865,0,0,0-4.9,5.513,19.131,19.131,0,0,0-1.763,8.481A19.128,19.128,0,0,0,318.4,53.8a12.856,12.856,0,0,0,4.9,5.514,13.317,13.317,0,0,0,7.053,1.9,11.784,11.784,0,0,0,6.717-1.875,10.205,10.205,0,0,0,3.975-5.01v6.494h7.836V29.817H341.04v6.437a10.065,10.065,0,0,0-3.975-4.982,11.918,11.918,0,0,0-6.717-1.847h0Zm2.463,6.885a7.811,7.811,0,0,1,5.906,2.435,9.136,9.136,0,0,1,2.323,6.577,9.059,9.059,0,0,1-2.323,6.522,8.482,8.482,0,0,1-11.839.055,9.212,9.212,0,0,1-2.239-6.577,9.318,9.318,0,0,1,2.239-6.605,7.719,7.719,0,0,1,5.933-2.407h0Z" transform="translate(-1.313 -2.75)"></path></svg> 